<svg width="128" height="128" viewBox="0 0 128 128" fill="none" xmlns="http://www.w3.org/2000/svg">
<g clip-path="url(#clip0_3362_45)">
<path fill-rule="evenodd" clip-rule="evenodd" d="M13.8126 40.6215C3.06258 35.1527 4.30216 29.0694 15.0938 29.7048L17.5105 34.1944L22.5001 18.7361C24.4584 12.6423 27.7188 7.11108 34.1042 7.11108H97.8334C104.219 7.11108 107.906 12.5382 109.448 18.7361L113.188 33.7569L115.344 29.7048C126.448 29.059 127.438 35.5069 115.688 41.0798L117.594 44.0069C124.5 51.1007 124.656 58.184 123.75 73.6007C122.584 72.8996 121.369 72.2835 120.115 71.7569C105.083 65.5069 96.5105 71.9132 88.3751 78.0069C85.7292 79.9861 83.1668 81.8819 81.823 81.8715L46.1876 82.1111C45.6459 82.1111 45.1459 82.1111 44.8647 82.0277L44.6876 81.9652H44.5313C44.0364 81.7748 43.5675 81.5228 43.1355 81.2152C42.1563 80.5798 40.6876 79.4548 38.6876 77.8819C32.1667 72.7465 24.5626 70.1111 17.0105 70.5277C12.6051 70.7587 8.31896 72.041 4.5105 74.2673C3.34383 60.2361 2.58341 47.8923 13.8126 40.6215ZM33.6042 58.4652L19.7917 56.7257C16.5417 56.3715 15.6251 57.7673 16.7813 60.5382L18.2605 64.1527C18.6805 65.0042 19.3253 65.7246 20.1251 66.2361C21.0745 66.7883 22.1518 67.0827 23.2501 67.0903L35.5209 67.184C38.4897 67.184 39.7709 65.9861 38.8438 63.2673C38.5164 62.0585 37.8535 60.9671 36.9318 60.1192C36.0102 59.2712 34.8674 58.7014 33.6355 58.4757L33.6042 58.4652ZM94.4168 58.4652L108.177 56.7257C111.427 56.3715 112.344 57.7673 111.198 60.5382L109.708 64.1527C109.288 65.0042 108.644 65.7246 107.844 66.2361C106.895 66.7905 105.817 67.0851 104.719 67.0903L92.448 67.184C89.4793 67.184 88.198 65.9861 89.1251 63.2673C89.4548 62.0597 90.1184 60.9695 91.0397 60.1219C91.9609 59.2744 93.1025 58.7038 94.3334 58.4757L94.4168 58.4652ZM22.6876 37.6319H107.677L103.927 22.0069C102.885 17.2569 99.948 13.1423 95.073 13.1423H36.2188C31.3542 13.1423 28.8542 17.3715 27.3647 22.0069L22.6772 37.6319H22.6876Z" fill="#0E63F4"/>
<path fill-rule="evenodd" clip-rule="evenodd" d="M11.75 118.903C6.47917 116.715 2.25 111.924 0 105.955C20.9271 116.215 29.3646 88.8402 4.26042 87.2048C12.2083 78.1944 23.5104 78.6215 32.4583 85.6631C36.6771 88.9861 39.0625 90.6735 41.5313 91.4444C42.9721 91.8679 44.467 92.0784 45.9688 92.0694L81.7396 91.8194C93.4167 91.986 99.8542 74.236 116.25 81.0694C121.521 83.2569 125.74 88.059 128 94.0173C107.073 83.7569 98.625 111.142 123.74 112.767C115.792 121.778 104.49 121.361 95.5417 114.309C91.625 111.184 89.2083 107.632 81.3021 107.611L46.6354 108.059C44.9268 108.032 43.2248 108.278 41.5938 108.788C40.0729 109.377 38.6369 110.166 37.3229 111.132C28.8958 116.882 22.7396 123.549 11.75 118.965V118.903Z" fill="#0E63F4"/>
</g>
<defs>
<clipPath id="clip0_3362_45">
<rect width="128" height="113.312" fill="white" transform="translate(0 7.11108)"/>
</clipPath>
</defs>
</svg>
