<svg width="132" height="37" viewBox="0 0 132 37" fill="none" xmlns="http://www.w3.org/2000/svg">
<path d="M42 36H59.777" stroke="#0E63F4" stroke-width="0.635"/>
<g clip-path="url(#clip0_3362_40)">
<path fill-rule="evenodd" clip-rule="evenodd" d="M3.88481 11.4248C0.861374 9.88672 1.21001 8.17578 4.24516 8.35449L4.92485 9.61719L6.32817 5.26953C6.87895 3.55566 7.79594 2 9.59184 2H27.5157C29.3116 2 30.3487 3.52637 30.7823 5.26953L31.834 9.49414L32.4405 8.35449C35.5635 8.17285 35.8418 9.98633 32.5372 11.5537L33.0733 12.377C35.0157 14.3721 35.0596 16.3643 34.8047 20.7002C34.4768 20.503 34.1351 20.3297 33.7823 20.1816C29.5547 18.4238 27.1436 20.2256 24.8555 21.9395C24.1114 22.4961 23.3907 23.0293 23.0127 23.0264L12.9903 23.0938C12.8379 23.0938 12.6973 23.0937 12.6182 23.0703L12.5684 23.0527H12.5245C12.3853 22.9992 12.2534 22.9283 12.1319 22.8418C11.8565 22.6631 11.4434 22.3467 10.8809 21.9043C9.04692 20.46 6.90825 19.7188 4.78423 19.8359C3.5452 19.9009 2.33973 20.2615 1.2686 20.8877C0.940475 16.9414 0.726608 13.4697 3.88481 11.4248ZM9.45122 16.4434L5.56645 15.9541C4.65239 15.8545 4.39458 16.2471 4.71977 17.0264L5.13579 18.043C5.25392 18.2824 5.43526 18.485 5.6602 18.6289C5.92723 18.7842 6.23021 18.867 6.53911 18.8691L9.99028 18.8955C10.8252 18.8955 11.1856 18.5586 10.9249 17.7939C10.8327 17.454 10.6463 17.147 10.3871 16.9085C10.1279 16.67 9.80647 16.5098 9.46001 16.4463L9.45122 16.4434ZM26.5547 16.4434L30.4249 15.9541C31.3389 15.8545 31.5967 16.2471 31.2745 17.0264L30.8555 18.043C30.7374 18.2824 30.556 18.485 30.3311 18.6289C30.0643 18.7848 29.7612 18.8677 29.4522 18.8691L26.001 18.8955C25.1661 18.8955 24.8057 18.5586 25.0665 17.7939C25.1592 17.4543 25.3458 17.1477 25.6049 16.9093C25.864 16.6709 26.1851 16.5104 26.5313 16.4463L26.5547 16.4434ZM6.38091 10.584H30.2842L29.2295 6.18945C28.9366 4.85352 28.1104 3.69629 26.7393 3.69629H10.1866C8.81841 3.69629 8.11528 4.88574 7.69634 6.18945L6.37798 10.584H6.38091Z" fill="#0E63F4"/>
<path fill-rule="evenodd" clip-rule="evenodd" d="M3.30469 33.4415C1.82227 32.8262 0.632813 31.4786 0 29.7999C5.88574 32.6856 8.25879 24.9864 1.19824 24.5264C3.43359 21.9923 6.6123 22.1124 9.12891 24.0928C10.3154 25.0274 10.9863 25.502 11.6807 25.7188C12.0859 25.8379 12.5064 25.8971 12.9287 25.8946L22.9893 25.8243C26.2734 25.8712 28.084 20.879 32.6953 22.8008C34.1777 23.4161 35.3643 24.7667 36 26.4424C30.1143 23.5567 27.7383 31.2589 34.8018 31.7159C32.5664 34.2501 29.3877 34.1329 26.8711 32.1495C25.7695 31.2706 25.0898 30.2716 22.8662 30.2657L13.1162 30.3917C12.6357 30.3842 12.157 30.4534 11.6982 30.5967C11.2705 30.7625 10.8666 30.9842 10.4971 31.2559C8.12695 32.8731 6.39551 34.7481 3.30469 33.459V33.4415Z" fill="#0E63F4"/>
</g>
<path d="M45.3942 18H42.4283L46.9474 4.90909H50.5142L55.027 18H52.0611L48.782 7.90057H48.6797L45.3942 18ZM45.2088 12.8544H52.2145V15.0149H45.2088V12.8544ZM62.8477 13.8196V8.18182H65.5707V18H62.9563V16.2166H62.854C62.6325 16.7919 62.2638 17.2543 61.7482 17.6037C61.2369 17.9531 60.6126 18.1278 59.8754 18.1278C59.2191 18.1278 58.6417 17.9787 58.1431 17.6804C57.6445 17.3821 57.2546 16.9581 56.9734 16.4084C56.6964 15.8587 56.5558 15.2003 56.5515 14.4332V8.18182H59.2745V13.9474C59.2788 14.527 59.4343 14.9851 59.7411 15.3217C60.0479 15.6584 60.4592 15.8267 60.9748 15.8267C61.3029 15.8267 61.6097 15.7521 61.8952 15.603C62.1808 15.4496 62.4109 15.2237 62.5856 14.9254C62.7646 14.6271 62.8519 14.2585 62.8477 13.8196ZM72.9711 8.18182V10.2273H67.0584V8.18182H72.9711ZM68.4007 5.82955H71.1238V14.983C71.1238 15.2344 71.1621 15.4304 71.2388 15.571C71.3155 15.7074 71.4221 15.8033 71.5584 15.8587C71.699 15.9141 71.861 15.9418 72.0442 15.9418C72.1721 15.9418 72.2999 15.9311 72.4277 15.9098C72.5556 15.8842 72.6536 15.8651 72.7218 15.8523L73.15 17.8786C73.0137 17.9212 72.8219 17.9702 72.5748 18.0256C72.3276 18.0852 72.0272 18.1214 71.6735 18.1342C71.0172 18.1598 70.4419 18.0724 69.9476 17.8722C69.4576 17.6719 69.0762 17.3608 68.8034 16.9389C68.5307 16.517 68.3965 15.9844 68.4007 15.3409V5.82955ZM79.0755 18.1918C78.0826 18.1918 77.2239 17.9808 76.4995 17.5589C75.7793 17.1328 75.2232 16.5405 74.8311 15.782C74.4391 15.0192 74.2431 14.1349 74.2431 13.1293C74.2431 12.1151 74.4391 11.2287 74.8311 10.4702C75.2232 9.70739 75.7793 9.11506 76.4995 8.69318C77.2239 8.26705 78.0826 8.05398 79.0755 8.05398C80.0684 8.05398 80.9249 8.26705 81.6451 8.69318C82.3695 9.11506 82.9277 9.70739 83.3198 10.4702C83.7118 11.2287 83.9078 12.1151 83.9078 13.1293C83.9078 14.1349 83.7118 15.0192 83.3198 15.782C82.9277 16.5405 82.3695 17.1328 81.6451 17.5589C80.9249 17.9808 80.0684 18.1918 79.0755 18.1918ZM79.0882 16.0824C79.54 16.0824 79.9171 15.9545 80.2196 15.6989C80.5222 15.4389 80.7502 15.0852 80.9036 14.6378C81.0613 14.1903 81.1401 13.6811 81.1401 13.1101C81.1401 12.5391 81.0613 12.0298 80.9036 11.5824C80.7502 11.1349 80.5222 10.7812 80.2196 10.5213C79.9171 10.2614 79.54 10.1314 79.0882 10.1314C78.6323 10.1314 78.2488 10.2614 77.9377 10.5213C77.6309 10.7812 77.3986 11.1349 77.2409 11.5824C77.0875 12.0298 77.0108 12.5391 77.0108 13.1101C77.0108 13.6811 77.0875 14.1903 77.2409 14.6378C77.3986 15.0852 77.6309 15.4389 77.9377 15.6989C78.2488 15.9545 78.6323 16.0824 79.0882 16.0824ZM89.8956 18V4.90909H98.7166V7.19105H92.6634V10.3104H98.2628V12.5923H92.6634V15.718H98.7422V18H89.8956ZM103.666 18.1854C103.039 18.1854 102.481 18.0767 101.991 17.8594C101.501 17.6378 101.113 17.3118 100.828 16.8814C100.546 16.4467 100.406 15.9055 100.406 15.2578C100.406 14.7124 100.506 14.2543 100.706 13.8835C100.906 13.5128 101.179 13.2145 101.524 12.9886C101.869 12.7628 102.262 12.5923 102.7 12.4773C103.144 12.3622 103.608 12.2812 104.094 12.2344C104.665 12.1747 105.125 12.1193 105.475 12.0682C105.824 12.0128 106.078 11.9318 106.235 11.8253C106.393 11.7187 106.472 11.5611 106.472 11.3523V11.3139C106.472 10.9091 106.344 10.5959 106.088 10.3743C105.837 10.1527 105.479 10.0419 105.014 10.0419C104.524 10.0419 104.134 10.1506 103.845 10.3679C103.555 10.581 103.363 10.8494 103.269 11.1733L100.751 10.9688C100.879 10.3722 101.13 9.85653 101.505 9.42188C101.88 8.98295 102.364 8.64631 102.956 8.41193C103.553 8.1733 104.243 8.05398 105.027 8.05398C105.573 8.05398 106.095 8.1179 106.593 8.24574C107.096 8.37358 107.541 8.57173 107.929 8.8402C108.321 9.10866 108.63 9.45384 108.856 9.87571C109.082 10.2933 109.195 10.794 109.195 11.3778V18H106.612V16.6385H106.536C106.378 16.9453 106.167 17.2159 105.903 17.4503C105.639 17.6804 105.321 17.8615 104.95 17.9936C104.58 18.1214 104.151 18.1854 103.666 18.1854ZM104.445 16.3061C104.846 16.3061 105.2 16.2273 105.507 16.0696C105.813 15.9077 106.054 15.6903 106.229 15.4176C106.404 15.1449 106.491 14.8359 106.491 14.4908V13.4489C106.406 13.5043 106.289 13.5554 106.139 13.6023C105.994 13.6449 105.83 13.6854 105.647 13.7237C105.464 13.7578 105.281 13.7898 105.097 13.8196C104.914 13.8452 104.748 13.8686 104.599 13.8899C104.279 13.9368 104 14.0114 103.762 14.1136C103.523 14.2159 103.338 14.3544 103.205 14.5291C103.073 14.6996 103.007 14.9126 103.007 15.1683C103.007 15.5391 103.142 15.8224 103.41 16.0185C103.683 16.2102 104.028 16.3061 104.445 16.3061ZM119.476 10.9815L116.983 11.1349C116.941 10.9219 116.849 10.7301 116.709 10.5597C116.568 10.3849 116.383 10.2464 116.153 10.1442C115.927 10.0376 115.656 9.98438 115.341 9.98438C114.919 9.98438 114.563 10.0739 114.273 10.2528C113.983 10.4276 113.839 10.6619 113.839 10.956C113.839 11.1903 113.932 11.3885 114.12 11.5504C114.307 11.7124 114.629 11.8423 115.085 11.9403L116.862 12.2983C117.817 12.4943 118.528 12.8097 118.997 13.2443C119.466 13.679 119.7 14.25 119.7 14.9574C119.7 15.6009 119.51 16.1655 119.131 16.6513C118.756 17.1371 118.241 17.5163 117.584 17.7891C116.932 18.0575 116.18 18.1918 115.328 18.1918C114.028 18.1918 112.993 17.9212 112.221 17.38C111.454 16.8345 111.005 16.093 110.873 15.1555L113.551 15.0149C113.632 15.4112 113.828 15.7138 114.139 15.9226C114.45 16.1271 114.849 16.2294 115.334 16.2294C115.812 16.2294 116.195 16.1378 116.485 15.9545C116.779 15.767 116.928 15.5263 116.932 15.2322C116.928 14.9851 116.824 14.7827 116.619 14.625C116.415 14.4631 116.099 14.3395 115.673 14.2543L113.973 13.9155C113.014 13.7237 112.3 13.3913 111.831 12.9183C111.367 12.4453 111.135 11.8423 111.135 11.1094C111.135 10.4787 111.305 9.93537 111.646 9.4794C111.991 9.02344 112.475 8.67188 113.097 8.42472C113.724 8.17756 114.456 8.05398 115.296 8.05398C116.536 8.05398 117.512 8.31605 118.224 8.8402C118.939 9.36435 119.357 10.0781 119.476 10.9815ZM125.889 18.1918C124.879 18.1918 124.01 17.9872 123.281 17.5781C122.557 17.1648 121.999 16.581 121.607 15.8267C121.214 15.0682 121.018 14.1712 121.018 13.1357C121.018 12.1257 121.214 11.2393 121.607 10.4766C121.999 9.71378 122.55 9.11932 123.262 8.69318C123.978 8.26705 124.817 8.05398 125.781 8.05398C126.428 8.05398 127.031 8.15838 127.589 8.36719C128.152 8.57173 128.642 8.88068 129.06 9.29403C129.482 9.70739 129.81 10.2273 130.044 10.8537C130.278 11.4759 130.396 12.2045 130.396 13.0398V13.7876H122.105V12.1001H127.832C127.832 11.7081 127.747 11.3608 127.577 11.0582C127.406 10.7557 127.17 10.5192 126.867 10.3487C126.569 10.174 126.222 10.0866 125.825 10.0866C125.412 10.0866 125.045 10.1825 124.726 10.3743C124.411 10.5618 124.163 10.8153 123.984 11.1349C123.805 11.4503 123.714 11.8018 123.71 12.1896V13.794C123.71 14.2798 123.799 14.6996 123.978 15.0533C124.161 15.407 124.419 15.6797 124.751 15.8714C125.084 16.0632 125.478 16.1591 125.934 16.1591C126.237 16.1591 126.513 16.1165 126.765 16.0312C127.016 15.946 127.232 15.8182 127.411 15.6477C127.589 15.4773 127.726 15.2685 127.82 15.0213L130.338 15.1875C130.21 15.7926 129.948 16.321 129.552 16.7727C129.16 17.2202 128.653 17.5696 128.031 17.821C127.413 18.0682 126.699 18.1918 125.889 18.1918Z" fill="#0E63F4"/>
<path d="M42.6605 31V25.5455H45.9311V26.1314H43.321V27.9744H45.6861V28.5604H43.321V31H42.6605ZM48.181 31.0959C47.9217 31.0959 47.6865 31.0471 47.4752 30.9494C47.2639 30.85 47.0961 30.707 46.9718 30.5206C46.8475 30.3324 46.7854 30.1051 46.7854 29.8388C46.7854 29.6044 46.8315 29.4144 46.9239 29.2688C47.0162 29.1214 47.1396 29.006 47.2941 28.9226C47.4486 28.8391 47.619 28.777 47.8054 28.7362C47.9937 28.6935 48.1828 28.6598 48.3727 28.6349C48.6213 28.603 48.8228 28.579 48.9773 28.563C49.1336 28.5453 49.2472 28.516 49.3182 28.4751C49.391 28.4343 49.4274 28.3633 49.4274 28.2621V28.2408C49.4274 27.978 49.3555 27.7738 49.2117 27.6282C49.0696 27.4826 48.8539 27.4098 48.5645 27.4098C48.2644 27.4098 48.0292 27.4755 47.8587 27.6069C47.6883 27.7383 47.5684 27.8786 47.4992 28.0277L46.9026 27.8146C47.0091 27.5661 47.1511 27.3725 47.3287 27.234C47.508 27.0937 47.7033 26.9961 47.9146 26.9411C48.1277 26.8842 48.3372 26.8558 48.5432 26.8558C48.6746 26.8558 48.8255 26.8718 48.996 26.9038C49.1682 26.9339 49.3342 26.997 49.494 27.0929C49.6556 27.1887 49.7896 27.3335 49.8962 27.527C50.0027 27.7205 50.056 27.9798 50.056 28.3047V31H49.4274V30.446H49.3955C49.3528 30.5348 49.2818 30.6298 49.1824 30.731C49.083 30.8322 48.9507 30.9183 48.7856 30.9893C48.6204 31.0604 48.4189 31.0959 48.181 31.0959ZM48.2769 30.5312C48.5254 30.5312 48.735 30.4824 48.9054 30.3848C49.0776 30.2871 49.2073 30.161 49.2943 30.0066C49.383 29.8521 49.4274 29.6896 49.4274 29.5192V28.9439C49.4008 28.9759 49.3422 29.0051 49.2516 29.0318C49.1629 29.0566 49.0599 29.0788 48.9427 29.0984C48.8273 29.1161 48.7145 29.1321 48.6044 29.1463C48.4961 29.1587 48.4082 29.1694 48.3408 29.1783C48.1774 29.1996 48.0247 29.2342 47.8827 29.2821C47.7424 29.3283 47.6288 29.3984 47.5418 29.4925C47.4565 29.5849 47.4139 29.7109 47.4139 29.8707C47.4139 30.0891 47.4947 30.2543 47.6563 30.3661C47.8196 30.4762 48.0265 30.5312 48.2769 30.5312ZM54.1009 27.8253L53.5363 27.9851C53.5008 27.891 53.4484 27.7995 53.3792 27.7108C53.3117 27.6202 53.2194 27.5456 53.1022 27.487C52.985 27.4284 52.835 27.3991 52.6521 27.3991C52.4017 27.3991 52.1931 27.4569 52.0262 27.5723C51.8611 27.6859 51.7785 27.8306 51.7785 28.0064C51.7785 28.1626 51.8353 28.286 51.949 28.3766C52.0626 28.4672 52.2401 28.5426 52.4816 28.603L53.0889 28.7521C53.4546 28.8409 53.7272 28.9767 53.9065 29.1596C54.0858 29.3407 54.1755 29.5742 54.1755 29.8601C54.1755 30.0945 54.108 30.304 53.9731 30.4886C53.8399 30.6733 53.6535 30.8189 53.4138 30.9254C53.1741 31.032 52.8953 31.0852 52.5775 31.0852C52.1602 31.0852 51.8149 30.9947 51.5415 30.8136C51.268 30.6325 51.0949 30.3679 51.0221 30.0199L51.6187 29.8707C51.6755 30.0909 51.7829 30.256 51.941 30.3661C52.1008 30.4762 52.3094 30.5312 52.5669 30.5312C52.8598 30.5312 53.0924 30.4691 53.2646 30.3448C53.4387 30.2187 53.5257 30.0678 53.5257 29.892C53.5257 29.75 53.4759 29.631 53.3765 29.5352C53.2771 29.4375 53.1244 29.3647 52.9184 29.3168L52.2366 29.157C51.8619 29.0682 51.5867 28.9306 51.411 28.7441C51.2369 28.5559 51.1499 28.3207 51.1499 28.0384C51.1499 27.8075 51.2148 27.6033 51.3444 27.4258C51.4758 27.2482 51.6542 27.1088 51.8797 27.0076C52.107 26.9064 52.3644 26.8558 52.6521 26.8558C53.0569 26.8558 53.3747 26.9446 53.6056 27.1222C53.8382 27.2997 54.0033 27.5341 54.1009 27.8253ZM56.9008 26.9091V27.4418H54.7808V26.9091H56.9008ZM55.3987 25.929H56.0272V29.8281C56.0272 30.0057 56.053 30.1388 56.1044 30.2276C56.1577 30.3146 56.2252 30.3732 56.3069 30.4034C56.3903 30.4318 56.4782 30.446 56.5705 30.446C56.6398 30.446 56.6966 30.4425 56.741 30.4354C56.7854 30.4265 56.8209 30.4194 56.8475 30.4141L56.9754 30.9787C56.9328 30.9947 56.8733 31.0107 56.7969 31.0266C56.7206 31.0444 56.6238 31.0533 56.5066 31.0533C56.3291 31.0533 56.1551 31.0151 55.9846 30.9387C55.8159 30.8624 55.6756 30.7461 55.5638 30.5898C55.4537 30.4336 55.3987 30.2365 55.3987 29.9986V25.929ZM60.0409 31V25.5455H63.3115V26.1314H60.7014V27.9744H63.0665V28.5604H60.7014V31H60.0409ZM64.3575 31V26.9091H64.9861V31H64.3575ZM64.6771 26.2273C64.5546 26.2273 64.449 26.1855 64.3602 26.1021C64.2732 26.0186 64.2297 25.9183 64.2297 25.8011C64.2297 25.6839 64.2732 25.5836 64.3602 25.5002C64.449 25.4167 64.5546 25.375 64.6771 25.375C64.7996 25.375 64.9044 25.4167 64.9914 25.5002C65.0802 25.5836 65.1246 25.6839 65.1246 25.8011C65.1246 25.9183 65.0802 26.0186 64.9914 26.1021C64.9044 26.1855 64.7996 26.2273 64.6771 26.2273ZM66.606 26.9091L67.5862 28.5817L68.5663 26.9091H69.2907L67.9697 28.9545L69.2907 31H68.5663L67.5862 29.4126L66.606 31H65.8816L67.1813 28.9545L65.8816 26.9091H66.606ZM71.7343 31.0852C71.3402 31.0852 71.0001 30.9982 70.7143 30.8242C70.4302 30.6484 70.2109 30.4034 70.0564 30.0891C69.9037 29.7731 69.8274 29.4055 69.8274 28.9865C69.8274 28.5675 69.9037 28.1982 70.0564 27.8786C70.2109 27.5572 70.4257 27.3068 70.7009 27.1275C70.9779 26.9464 71.3011 26.8558 71.6704 26.8558C71.8835 26.8558 72.0939 26.8913 72.3016 26.9624C72.5094 27.0334 72.6985 27.1488 72.8689 27.3086C73.0394 27.4666 73.1752 27.6761 73.2764 27.9371C73.3776 28.1982 73.4282 28.5195 73.4282 28.9013V29.1676H70.2748V28.6243H72.789C72.789 28.3935 72.7429 28.1875 72.6505 28.0064C72.56 27.8253 72.4304 27.6824 72.2617 27.5776C72.0948 27.4728 71.8977 27.4205 71.6704 27.4205C71.4201 27.4205 71.2034 27.4826 71.0206 27.6069C70.8394 27.7294 70.7001 27.8892 70.6024 28.0863C70.5047 28.2834 70.4559 28.4947 70.4559 28.7202V29.0824C70.4559 29.3913 70.5092 29.6532 70.6157 29.8681C70.724 30.0811 70.8741 30.2436 71.0658 30.3555C71.2576 30.4656 71.4804 30.5206 71.7343 30.5206C71.8995 30.5206 72.0486 30.4975 72.1818 30.4513C72.3167 30.4034 72.433 30.3324 72.5307 30.2383C72.6283 30.1424 72.7038 30.0234 72.7571 29.8814L73.3643 30.0518C73.3004 30.2578 73.193 30.4389 73.042 30.5952C72.8911 30.7496 72.7047 30.8704 72.4827 30.9574C72.2608 31.0426 72.0113 31.0852 71.7343 31.0852ZM77.2821 27.8253L76.7175 27.9851C76.682 27.891 76.6296 27.7995 76.5603 27.7108C76.4929 27.6202 76.4005 27.5456 76.2833 27.487C76.1661 27.4284 76.0161 27.3991 75.8332 27.3991C75.5829 27.3991 75.3742 27.4569 75.2073 27.5723C75.0422 27.6859 74.9597 27.8306 74.9597 28.0064C74.9597 28.1626 75.0165 28.286 75.1301 28.3766C75.2437 28.4672 75.4213 28.5426 75.6628 28.603L76.27 28.7521C76.6358 28.8409 76.9083 28.9767 77.0877 29.1596C77.267 29.3407 77.3567 29.5742 77.3567 29.8601C77.3567 30.0945 77.2892 30.304 77.1543 30.4886C77.0211 30.6733 76.8347 30.8189 76.5949 30.9254C76.3552 31.032 76.0765 31.0852 75.7587 31.0852C75.3414 31.0852 74.996 30.9947 74.7226 30.8136C74.4492 30.6325 74.2761 30.3679 74.2033 30.0199L74.7998 29.8707C74.8567 30.0909 74.9641 30.256 75.1221 30.3661C75.2819 30.4762 75.4905 30.5312 75.748 30.5312C76.041 30.5312 76.2736 30.4691 76.4458 30.3448C76.6198 30.2187 76.7068 30.0678 76.7068 29.892C76.7068 29.75 76.6571 29.631 76.5577 29.5352C76.4582 29.4375 76.3055 29.3647 76.0996 29.3168L75.4177 29.157C75.0431 29.0682 74.7679 28.9306 74.5921 28.7441C74.4181 28.5559 74.3311 28.3207 74.3311 28.0384C74.3311 27.8075 74.3959 27.6033 74.5255 27.4258C74.6569 27.2482 74.8354 27.1088 75.0609 27.0076C75.2881 26.9064 75.5456 26.8558 75.8332 26.8558C76.2381 26.8558 76.5559 26.9446 76.7867 27.1222C77.0193 27.2997 77.1844 27.5341 77.2821 27.8253ZM79.2403 30.2543L79.1977 30.5419C79.1675 30.7443 79.1214 30.9609 79.0592 31.1918C78.9988 31.4226 78.9358 31.6401 78.8701 31.8443C78.8044 32.0485 78.7503 32.2109 78.7077 32.3317H78.2282C78.2513 32.218 78.2815 32.068 78.3188 31.8816C78.3561 31.6951 78.3934 31.4865 78.4307 31.2557C78.4697 31.0266 78.5017 30.7923 78.5265 30.5526L78.5585 30.2543H79.2403ZM85.5824 26.9091C85.5505 26.6392 85.4209 26.4297 85.1936 26.2805C84.9663 26.1314 84.6875 26.0568 84.3573 26.0568C84.1158 26.0568 83.9045 26.0959 83.7234 26.174C83.5441 26.2521 83.4038 26.3596 83.3026 26.4963C83.2032 26.633 83.1535 26.7884 83.1535 26.9624C83.1535 27.108 83.1881 27.2331 83.2573 27.3379C83.3283 27.4409 83.4189 27.527 83.529 27.5962C83.6391 27.6637 83.7545 27.7196 83.8752 27.764C83.996 27.8066 84.1069 27.8413 84.2081 27.8679L84.7621 28.017C84.9042 28.0543 85.0622 28.1058 85.2362 28.1715C85.412 28.2372 85.5798 28.3269 85.7396 28.4405C85.9011 28.5524 86.0343 28.6962 86.1391 28.872C86.2438 29.0478 86.2962 29.2635 86.2962 29.5192C86.2962 29.8139 86.219 30.0803 86.0645 30.3182C85.9118 30.5561 85.6881 30.7452 85.3933 30.8855C85.1004 31.0257 84.7444 31.0959 84.3253 31.0959C83.9347 31.0959 83.5965 31.0328 83.3106 30.9068C83.0265 30.7807 82.8028 30.6049 82.6394 30.3794C82.4778 30.1539 82.3864 29.892 82.3651 29.5938H83.0469C83.0647 29.7997 83.1339 29.9702 83.2547 30.1051C83.3772 30.2383 83.5316 30.3377 83.7181 30.4034C83.9063 30.4673 84.1087 30.4993 84.3253 30.4993C84.5775 30.4993 84.8038 30.4585 85.0045 30.3768C85.2051 30.2933 85.364 30.1779 85.4812 30.0305C85.5984 29.8814 85.657 29.7074 85.657 29.5085C85.657 29.3274 85.6064 29.18 85.5052 29.0664C85.404 28.9528 85.2708 28.8604 85.1057 28.7894C84.9406 28.7184 84.7621 28.6562 84.5704 28.603L83.8992 28.4112C83.4731 28.2887 83.1357 28.1138 82.8871 27.8865C82.6385 27.6593 82.5142 27.3619 82.5142 26.9943C82.5142 26.6889 82.5968 26.4226 82.7619 26.1953C82.9288 25.9663 83.1526 25.7887 83.4331 25.6626C83.7154 25.5348 84.0306 25.4709 84.3786 25.4709C84.7302 25.4709 85.0427 25.5339 85.3161 25.66C85.5895 25.7843 85.8062 25.9547 85.966 26.1713C86.1275 26.388 86.2128 26.6339 86.2216 26.9091H85.5824ZM87.297 31V26.9091H87.9042V27.5483H87.9575C88.0427 27.3299 88.1803 27.1603 88.3703 27.0396C88.5603 26.9171 88.7884 26.8558 89.0548 26.8558C89.3247 26.8558 89.5493 26.9171 89.7286 27.0396C89.9097 27.1603 90.0509 27.3299 90.1521 27.5483H90.1947C90.2994 27.337 90.4566 27.1692 90.6661 27.0449C90.8756 26.9189 91.1269 26.8558 91.4198 26.8558C91.7856 26.8558 92.0848 26.9703 92.3174 27.1994C92.55 27.4267 92.6663 27.7809 92.6663 28.2621V31H92.0377V28.2621C92.0377 27.9602 91.9552 27.7445 91.79 27.6149C91.6249 27.4853 91.4305 27.4205 91.2068 27.4205C90.9191 27.4205 90.6963 27.5075 90.5383 27.6815C90.3802 27.8537 90.3012 28.0721 90.3012 28.3366V31H89.662V28.1982C89.662 27.9656 89.5866 27.7782 89.4356 27.6362C89.2847 27.4924 89.0903 27.4205 88.8524 27.4205C88.689 27.4205 88.5363 27.464 88.3943 27.551C88.254 27.638 88.1404 27.7587 88.0534 27.9132C87.9681 28.0659 87.9255 28.2425 87.9255 28.4432V31H87.297ZM95.4775 31.0852C95.1081 31.0852 94.7841 30.9973 94.5053 30.8216C94.2283 30.6458 94.0117 30.3999 93.8555 30.0838C93.701 29.7678 93.6238 29.3984 93.6238 28.9759C93.6238 28.5497 93.701 28.1777 93.8555 27.8599C94.0117 27.5421 94.2283 27.2953 94.5053 27.1195C94.7841 26.9437 95.1081 26.8558 95.4775 26.8558C95.8468 26.8558 96.1699 26.9437 96.4469 27.1195C96.7257 27.2953 96.9423 27.5421 97.0968 27.8599C97.253 28.1777 97.3311 28.5497 97.3311 28.9759C97.3311 29.3984 97.253 29.7678 97.0968 30.0838C96.9423 30.3999 96.7257 30.6458 96.4469 30.8216C96.1699 30.9973 95.8468 31.0852 95.4775 31.0852ZM95.4775 30.5206C95.758 30.5206 95.9888 30.4487 96.1699 30.3049C96.351 30.161 96.4851 29.9719 96.5721 29.7376C96.6591 29.5032 96.7026 29.2493 96.7026 28.9759C96.7026 28.7024 96.6591 28.4476 96.5721 28.2115C96.4851 27.9753 96.351 27.7844 96.1699 27.6388C95.9888 27.4933 95.758 27.4205 95.4775 27.4205C95.1969 27.4205 94.9661 27.4933 94.785 27.6388C94.6039 27.7844 94.4698 27.9753 94.3828 28.2115C94.2958 28.4476 94.2523 28.7024 94.2523 28.9759C94.2523 29.2493 94.2958 29.5032 94.3828 29.7376C94.4698 29.9719 94.6039 30.161 94.785 30.3049C94.9661 30.4487 95.1969 30.5206 95.4775 30.5206ZM99.9525 31.0852C99.5832 31.0852 99.2592 30.9973 98.9804 30.8216C98.7034 30.6458 98.4868 30.3999 98.3306 30.0838C98.1761 29.7678 98.0989 29.3984 98.0989 28.9759C98.0989 28.5497 98.1761 28.1777 98.3306 27.8599C98.4868 27.5421 98.7034 27.2953 98.9804 27.1195C99.2592 26.9437 99.5832 26.8558 99.9525 26.8558C100.322 26.8558 100.645 26.9437 100.922 27.1195C101.201 27.2953 101.417 27.5421 101.572 27.8599C101.728 28.1777 101.806 28.5497 101.806 28.9759C101.806 29.3984 101.728 29.7678 101.572 30.0838C101.417 30.3999 101.201 30.6458 100.922 30.8216C100.645 30.9973 100.322 31.0852 99.9525 31.0852ZM99.9525 30.5206C100.233 30.5206 100.464 30.4487 100.645 30.3049C100.826 30.161 100.96 29.9719 101.047 29.7376C101.134 29.5032 101.178 29.2493 101.178 28.9759C101.178 28.7024 101.134 28.4476 101.047 28.2115C100.96 27.9753 100.826 27.7844 100.645 27.6388C100.464 27.4933 100.233 27.4205 99.9525 27.4205C99.672 27.4205 99.4412 27.4933 99.2601 27.6388C99.079 27.7844 98.9449 27.9753 98.8579 28.2115C98.7709 28.4476 98.7274 28.7024 98.7274 28.9759C98.7274 29.2493 98.7709 29.5032 98.8579 29.7376C98.9449 29.9719 99.079 30.161 99.2601 30.3049C99.4412 30.4487 99.672 30.5206 99.9525 30.5206ZM104.545 26.9091V27.4418H102.425V26.9091H104.545ZM103.043 25.929H103.671V29.8281C103.671 30.0057 103.697 30.1388 103.748 30.2276C103.802 30.3146 103.869 30.3732 103.951 30.4034C104.034 30.4318 104.122 30.446 104.215 30.446C104.284 30.446 104.341 30.4425 104.385 30.4354C104.429 30.4265 104.465 30.4194 104.492 30.4141L104.619 30.9787C104.577 30.9947 104.517 31.0107 104.441 31.0266C104.365 31.0444 104.268 31.0533 104.151 31.0533C103.973 31.0533 103.799 31.0151 103.629 30.9387C103.46 30.8624 103.32 30.7461 103.208 30.5898C103.098 30.4336 103.043 30.2365 103.043 29.9986V25.929ZM106.207 28.5391V31H105.578V25.5455H106.207V27.5483H106.26C106.356 27.337 106.5 27.1692 106.691 27.0449C106.885 26.9189 107.142 26.8558 107.464 26.8558C107.743 26.8558 107.987 26.9118 108.196 27.0236C108.406 27.1337 108.568 27.3033 108.684 27.5323C108.801 27.7596 108.859 28.049 108.859 28.4006V31H108.231V28.4432C108.231 28.1183 108.147 27.867 107.978 27.6895C107.811 27.5101 107.579 27.4205 107.283 27.4205C107.077 27.4205 106.892 27.464 106.729 27.551C106.567 27.638 106.439 27.7649 106.345 27.9318C106.253 28.0987 106.207 28.3011 106.207 28.5391ZM112.204 31V25.5455H114.047C114.473 25.5455 114.823 25.6183 115.096 25.7638C115.37 25.9077 115.572 26.1056 115.704 26.3578C115.835 26.6099 115.901 26.8967 115.901 27.218C115.901 27.5394 115.835 27.8244 115.704 28.073C115.572 28.3216 115.371 28.5169 115.099 28.6589C114.827 28.7992 114.48 28.8693 114.058 28.8693H112.566V28.2727H114.036C114.328 28.2727 114.562 28.2301 114.739 28.1449C114.919 28.0597 115.048 27.9389 115.128 27.7827C115.21 27.6246 115.251 27.4364 115.251 27.218C115.251 26.9996 115.21 26.8088 115.128 26.6454C115.047 26.4821 114.916 26.356 114.737 26.2672C114.557 26.1767 114.32 26.1314 114.026 26.1314H112.864V31H112.204ZM114.771 28.5497L116.114 31H115.347L114.026 28.5497H114.771ZM116.916 31V26.9091H117.545V31H116.916ZM117.236 26.2273C117.113 26.2273 117.008 26.1855 116.919 26.1021C116.832 26.0186 116.788 25.9183 116.788 25.8011C116.788 25.6839 116.832 25.5836 116.919 25.5002C117.008 25.4167 117.113 25.375 117.236 25.375C117.358 25.375 117.463 25.4167 117.55 25.5002C117.639 25.5836 117.683 25.6839 117.683 25.8011C117.683 25.9183 117.639 26.0186 117.55 26.1021C117.463 26.1855 117.358 26.2273 117.236 26.2273ZM120.241 31.0852C119.9 31.0852 119.599 30.9991 119.338 30.8269C119.077 30.6529 118.873 30.4078 118.725 30.0918C118.578 29.774 118.504 29.3984 118.504 28.9652C118.504 28.5355 118.578 28.1626 118.725 27.8466C118.873 27.5305 119.078 27.2864 119.34 27.1142C119.603 26.9419 119.907 26.8558 120.251 26.8558C120.518 26.8558 120.728 26.9002 120.883 26.989C121.039 27.076 121.158 27.1754 121.239 27.2873C121.323 27.3974 121.388 27.4879 121.434 27.5589H121.487V25.5455H122.116V31H121.508V30.3714H121.434C121.388 30.446 121.322 30.5401 121.237 30.6538C121.152 30.7656 121.03 30.8659 120.872 30.9547C120.714 31.0417 120.503 31.0852 120.241 31.0852ZM120.326 30.5206C120.578 30.5206 120.791 30.4549 120.965 30.3235C121.139 30.1903 121.271 30.0066 121.362 29.7722C121.452 29.536 121.498 29.2635 121.498 28.9545C121.498 28.6491 121.453 28.3819 121.365 28.1529C121.276 27.9221 121.144 27.7427 120.97 27.6149C120.796 27.4853 120.582 27.4205 120.326 27.4205C120.06 27.4205 119.838 27.4888 119.66 27.6255C119.484 27.7605 119.352 27.9442 119.263 28.1768C119.176 28.4077 119.133 28.6669 119.133 28.9545C119.133 29.2457 119.177 29.5103 119.266 29.7482C119.356 29.9844 119.49 30.1726 119.665 30.3129C119.843 30.4513 120.063 30.5206 120.326 30.5206ZM125.069 31.0852C124.675 31.0852 124.335 30.9982 124.049 30.8242C123.765 30.6484 123.546 30.4034 123.391 30.0891C123.239 29.7731 123.162 29.4055 123.162 28.9865C123.162 28.5675 123.239 28.1982 123.391 27.8786C123.546 27.5572 123.761 27.3068 124.036 27.1275C124.313 26.9464 124.636 26.8558 125.005 26.8558C125.218 26.8558 125.429 26.8913 125.637 26.9624C125.844 27.0334 126.033 27.1488 126.204 27.3086C126.374 27.4666 126.51 27.6761 126.611 27.9371C126.713 28.1982 126.763 28.5195 126.763 28.9013V29.1676H123.61V28.6243H126.124C126.124 28.3935 126.078 28.1875 125.985 28.0064C125.895 27.8253 125.765 27.6824 125.597 27.5776C125.43 27.4728 125.233 27.4205 125.005 27.4205C124.755 27.4205 124.538 27.4826 124.356 27.6069C124.174 27.7294 124.035 27.8892 123.937 28.0863C123.84 28.2834 123.791 28.4947 123.791 28.7202V29.0824C123.791 29.3913 123.844 29.6532 123.951 29.8681C124.059 30.0811 124.209 30.2436 124.401 30.3555C124.593 30.4656 124.815 30.5206 125.069 30.5206C125.234 30.5206 125.384 30.4975 125.517 30.4513C125.652 30.4034 125.768 30.3324 125.866 30.2383C125.963 30.1424 126.039 30.0234 126.092 29.8814L126.699 30.0518C126.635 30.2578 126.528 30.4389 126.377 30.5952C126.226 30.7496 126.04 30.8704 125.818 30.9574C125.596 31.0426 125.346 31.0852 125.069 31.0852ZM130.617 27.8253L130.052 27.9851C130.017 27.891 129.965 27.7995 129.895 27.7108C129.828 27.6202 129.735 27.5456 129.618 27.487C129.501 27.4284 129.351 27.3991 129.168 27.3991C128.918 27.3991 128.709 27.4569 128.542 27.5723C128.377 27.6859 128.295 27.8306 128.295 28.0064C128.295 28.1626 128.351 28.286 128.465 28.3766C128.579 28.4672 128.756 28.5426 128.998 28.603L129.605 28.7521C129.971 28.8409 130.243 28.9767 130.423 29.1596C130.602 29.3407 130.692 29.5742 130.692 29.8601C130.692 30.0945 130.624 30.304 130.489 30.4886C130.356 30.6733 130.17 30.8189 129.93 30.9254C129.69 31.032 129.411 31.0852 129.094 31.0852C128.676 31.0852 128.331 30.9947 128.058 30.8136C127.784 30.6325 127.611 30.3679 127.538 30.0199L128.135 29.8707C128.192 30.0909 128.299 30.256 128.457 30.3661C128.617 30.4762 128.826 30.5312 129.083 30.5312C129.376 30.5312 129.609 30.4691 129.781 30.3448C129.955 30.2187 130.042 30.0678 130.042 29.892C130.042 29.75 129.992 29.631 129.893 29.5352C129.793 29.4375 129.64 29.3647 129.435 29.3168L128.753 29.157C128.378 29.0682 128.103 28.9306 127.927 28.7441C127.753 28.5559 127.666 28.3207 127.666 28.0384C127.666 27.8075 127.731 27.6033 127.86 27.4258C127.992 27.2482 128.17 27.1088 128.396 27.0076C128.623 26.9064 128.881 26.8558 129.168 26.8558C129.573 26.8558 129.891 26.9446 130.122 27.1222C130.354 27.2997 130.519 27.5341 130.617 27.8253Z" fill="#797595"/>
<defs>
<clipPath id="clip0_3362_40">
<rect width="36" height="31.8691" fill="white" transform="translate(0 2)"/>
</clipPath>
</defs>
</svg>
